<svg width="96" height="96" xmlns="http://www.w3.org/2000/svg" xmlns:xlink="http://www.w3.org/1999/xlink" xml:space="preserve" overflow="hidden"><g transform="translate(-378 -729)"><path d="M426 749C427.1 749 428 749.9 428 751 428 752.1 427.1 753 426 753 424.9 753 424 752.1 424 751 424 749.9 424.9 749 426 749ZM438 809C438 807.9 437.1 807 436 807L429 807 429 756.2C429.9 755.7 430.7 754.9 431.2 754L450.4 754 444.8 783 448.9 783 453.3 760.2 458.9 783 463 783 455.7 754 457 754C458.7 754 460 752.7 460 751 460 749.3 458.7 748 457 748L431.2 748C430.7 747.1 429.9 746.3 429 745.8L429 740C429 738.3 427.7 737 426 737 424.3 737 423 738.3 423 740L423 745.8C422.1 746.3 421.3 747.1 420.8 748L395 748C393.3 748 392 749.3 392 751 392 752.4 393 753.7 394.4 753.9L388.7 783 392.8 783 397.2 760.2 402.9 783 407 783 399.7 754 420.7 754C421.2 754.9 422 755.7 422.9 756.2L422.9 807 415.9 807C414.8 807 413.9 807.9 413.9 809L413.9 811 402 811 402 817 450 817 450 811 438 811 438 809Z"/><path d="M410 786 386 786C386 789.3 391.4 792 398 792 404.6 792 410 789.3 410 786Z"/><path d="M442 786C442 789.3 447.4 792 454 792 460.6 792 466 789.3 466 786L442 786Z"/></g></svg>